<mxfile host="app.diagrams.net" modified="2023-01-04T07:36:23.394Z" agent="5.0 (Windows NT 10.0; Win64; x64) AppleWebKit/537.36 (KHTML, like Gecko) Chrome/108.0.0.0 Safari/537.36 Edg/108.0.1462.54" version="20.8.1" etag="VsUmBPw94ZAAyw7m2zAB" type="github">
  <diagram id="xlXpXFk4HpES8HOEw83c" name="Страница 1">
    <mxGraphModel dx="2026" dy="1180" grid="1" gridSize="10" guides="1" tooltips="1" connect="1" arrows="1" fold="1" page="1" pageScale="1" pageWidth="827" pageHeight="1169" math="0" shadow="0">
      <root>
        <mxCell id="0" />
        <mxCell id="1" parent="0" />
        <mxCell id="8ATP_7gYu5OmUUtbbshO-40" value="" style="edgeStyle=orthogonalEdgeStyle;rounded=0;orthogonalLoop=1;jettySize=auto;html=1;" edge="1" parent="1" source="8ATP_7gYu5OmUUtbbshO-1" target="8ATP_7gYu5OmUUtbbshO-39">
          <mxGeometry relative="1" as="geometry" />
        </mxCell>
        <mxCell id="8ATP_7gYu5OmUUtbbshO-1" value="Старт" style="rounded=1;whiteSpace=wrap;html=1;" vertex="1" parent="1">
          <mxGeometry x="180" width="120" height="60" as="geometry" />
        </mxCell>
        <mxCell id="8ATP_7gYu5OmUUtbbshO-7" value="" style="edgeStyle=orthogonalEdgeStyle;rounded=0;orthogonalLoop=1;jettySize=auto;html=1;" edge="1" parent="1" source="8ATP_7gYu5OmUUtbbshO-3" target="8ATP_7gYu5OmUUtbbshO-6">
          <mxGeometry relative="1" as="geometry" />
        </mxCell>
        <mxCell id="8ATP_7gYu5OmUUtbbshO-3" value="Раздача карт двум игрокам" style="rounded=0;whiteSpace=wrap;html=1;" vertex="1" parent="1">
          <mxGeometry x="180" y="180" width="120" height="60" as="geometry" />
        </mxCell>
        <mxCell id="8ATP_7gYu5OmUUtbbshO-9" style="edgeStyle=orthogonalEdgeStyle;rounded=0;orthogonalLoop=1;jettySize=auto;html=1;exitX=0;exitY=0.5;exitDx=0;exitDy=0;entryX=0.5;entryY=0;entryDx=0;entryDy=0;" edge="1" parent="1" source="8ATP_7gYu5OmUUtbbshO-6" target="8ATP_7gYu5OmUUtbbshO-8">
          <mxGeometry relative="1" as="geometry" />
        </mxCell>
        <mxCell id="8ATP_7gYu5OmUUtbbshO-10" value="Да" style="edgeLabel;html=1;align=center;verticalAlign=middle;resizable=0;points=[];" vertex="1" connectable="0" parent="8ATP_7gYu5OmUUtbbshO-9">
          <mxGeometry x="-0.1529" relative="1" as="geometry">
            <mxPoint as="offset" />
          </mxGeometry>
        </mxCell>
        <mxCell id="8ATP_7gYu5OmUUtbbshO-12" style="edgeStyle=orthogonalEdgeStyle;rounded=0;orthogonalLoop=1;jettySize=auto;html=1;entryX=0.5;entryY=0;entryDx=0;entryDy=0;" edge="1" parent="1" source="8ATP_7gYu5OmUUtbbshO-6" target="8ATP_7gYu5OmUUtbbshO-11">
          <mxGeometry relative="1" as="geometry" />
        </mxCell>
        <mxCell id="8ATP_7gYu5OmUUtbbshO-13" value="Нет" style="edgeLabel;html=1;align=center;verticalAlign=middle;resizable=0;points=[];" vertex="1" connectable="0" parent="8ATP_7gYu5OmUUtbbshO-12">
          <mxGeometry x="-0.1067" y="-3" relative="1" as="geometry">
            <mxPoint y="-4" as="offset" />
          </mxGeometry>
        </mxCell>
        <mxCell id="8ATP_7gYu5OmUUtbbshO-6" value="=21?" style="rhombus;whiteSpace=wrap;html=1;" vertex="1" parent="1">
          <mxGeometry x="200" y="250" width="80" height="80" as="geometry" />
        </mxCell>
        <mxCell id="8ATP_7gYu5OmUUtbbshO-8" value="Вы выиграли!" style="rounded=0;whiteSpace=wrap;html=1;" vertex="1" parent="1">
          <mxGeometry x="60" y="340" width="120" height="60" as="geometry" />
        </mxCell>
        <mxCell id="8ATP_7gYu5OmUUtbbshO-15" style="edgeStyle=orthogonalEdgeStyle;rounded=0;orthogonalLoop=1;jettySize=auto;html=1;entryX=0.5;entryY=0;entryDx=0;entryDy=0;" edge="1" parent="1" source="8ATP_7gYu5OmUUtbbshO-11" target="8ATP_7gYu5OmUUtbbshO-14">
          <mxGeometry relative="1" as="geometry" />
        </mxCell>
        <mxCell id="8ATP_7gYu5OmUUtbbshO-20" value="Берем" style="edgeLabel;html=1;align=center;verticalAlign=middle;resizable=0;points=[];" vertex="1" connectable="0" parent="8ATP_7gYu5OmUUtbbshO-15">
          <mxGeometry x="-0.2824" y="4" relative="1" as="geometry">
            <mxPoint as="offset" />
          </mxGeometry>
        </mxCell>
        <mxCell id="8ATP_7gYu5OmUUtbbshO-17" style="edgeStyle=orthogonalEdgeStyle;rounded=0;orthogonalLoop=1;jettySize=auto;html=1;entryX=0.5;entryY=0;entryDx=0;entryDy=0;" edge="1" parent="1" source="8ATP_7gYu5OmUUtbbshO-11" target="8ATP_7gYu5OmUUtbbshO-16">
          <mxGeometry relative="1" as="geometry">
            <Array as="points">
              <mxPoint x="490" y="370" />
            </Array>
          </mxGeometry>
        </mxCell>
        <mxCell id="8ATP_7gYu5OmUUtbbshO-21" value="Стоп" style="edgeLabel;html=1;align=center;verticalAlign=middle;resizable=0;points=[];" vertex="1" connectable="0" parent="8ATP_7gYu5OmUUtbbshO-17">
          <mxGeometry x="-0.3571" y="4" relative="1" as="geometry">
            <mxPoint as="offset" />
          </mxGeometry>
        </mxCell>
        <mxCell id="8ATP_7gYu5OmUUtbbshO-11" value="Берем/Стоп" style="rhombus;whiteSpace=wrap;html=1;" vertex="1" parent="1">
          <mxGeometry x="350" y="330" width="80" height="80" as="geometry" />
        </mxCell>
        <mxCell id="8ATP_7gYu5OmUUtbbshO-18" style="edgeStyle=orthogonalEdgeStyle;rounded=0;orthogonalLoop=1;jettySize=auto;html=1;entryX=0;entryY=0;entryDx=0;entryDy=0;" edge="1" parent="1" source="8ATP_7gYu5OmUUtbbshO-14" target="8ATP_7gYu5OmUUtbbshO-6">
          <mxGeometry relative="1" as="geometry">
            <Array as="points">
              <mxPoint x="40" y="480" />
              <mxPoint x="40" y="270" />
            </Array>
          </mxGeometry>
        </mxCell>
        <mxCell id="8ATP_7gYu5OmUUtbbshO-14" value="Выдать карту" style="rounded=0;whiteSpace=wrap;html=1;" vertex="1" parent="1">
          <mxGeometry x="200" y="450" width="120" height="60" as="geometry" />
        </mxCell>
        <mxCell id="8ATP_7gYu5OmUUtbbshO-23" value="" style="edgeStyle=orthogonalEdgeStyle;rounded=0;orthogonalLoop=1;jettySize=auto;html=1;" edge="1" parent="1" source="8ATP_7gYu5OmUUtbbshO-16" target="8ATP_7gYu5OmUUtbbshO-22">
          <mxGeometry relative="1" as="geometry" />
        </mxCell>
        <mxCell id="8ATP_7gYu5OmUUtbbshO-16" value="Подсчет суммы карт" style="rounded=0;whiteSpace=wrap;html=1;" vertex="1" parent="1">
          <mxGeometry x="430" y="450" width="120" height="60" as="geometry" />
        </mxCell>
        <mxCell id="8ATP_7gYu5OmUUtbbshO-26" style="edgeStyle=orthogonalEdgeStyle;rounded=0;orthogonalLoop=1;jettySize=auto;html=1;entryX=0.5;entryY=0;entryDx=0;entryDy=0;" edge="1" parent="1" source="8ATP_7gYu5OmUUtbbshO-22" target="8ATP_7gYu5OmUUtbbshO-24">
          <mxGeometry relative="1" as="geometry" />
        </mxCell>
        <mxCell id="8ATP_7gYu5OmUUtbbshO-28" value="Да" style="edgeLabel;html=1;align=center;verticalAlign=middle;resizable=0;points=[];" vertex="1" connectable="0" parent="8ATP_7gYu5OmUUtbbshO-26">
          <mxGeometry x="-0.2471" relative="1" as="geometry">
            <mxPoint as="offset" />
          </mxGeometry>
        </mxCell>
        <mxCell id="8ATP_7gYu5OmUUtbbshO-27" style="edgeStyle=orthogonalEdgeStyle;rounded=0;orthogonalLoop=1;jettySize=auto;html=1;exitX=1;exitY=0.5;exitDx=0;exitDy=0;entryX=0.5;entryY=0;entryDx=0;entryDy=0;" edge="1" parent="1" source="8ATP_7gYu5OmUUtbbshO-22" target="8ATP_7gYu5OmUUtbbshO-25">
          <mxGeometry relative="1" as="geometry" />
        </mxCell>
        <mxCell id="8ATP_7gYu5OmUUtbbshO-29" value="Нет" style="edgeLabel;html=1;align=center;verticalAlign=middle;resizable=0;points=[];" vertex="1" connectable="0" parent="8ATP_7gYu5OmUUtbbshO-27">
          <mxGeometry x="-0.1556" relative="1" as="geometry">
            <mxPoint as="offset" />
          </mxGeometry>
        </mxCell>
        <mxCell id="8ATP_7gYu5OmUUtbbshO-22" value="&amp;gt; чем у диллера" style="rhombus;whiteSpace=wrap;html=1;" vertex="1" parent="1">
          <mxGeometry x="450" y="560" width="80" height="80" as="geometry" />
        </mxCell>
        <mxCell id="8ATP_7gYu5OmUUtbbshO-33" style="edgeStyle=orthogonalEdgeStyle;rounded=0;orthogonalLoop=1;jettySize=auto;html=1;" edge="1" parent="1" source="8ATP_7gYu5OmUUtbbshO-24">
          <mxGeometry relative="1" as="geometry">
            <mxPoint x="490" y="760" as="targetPoint" />
          </mxGeometry>
        </mxCell>
        <mxCell id="8ATP_7gYu5OmUUtbbshO-24" value="Вы выиграли" style="rounded=0;whiteSpace=wrap;html=1;" vertex="1" parent="1">
          <mxGeometry x="310" y="690" width="120" height="60" as="geometry" />
        </mxCell>
        <mxCell id="8ATP_7gYu5OmUUtbbshO-32" style="edgeStyle=orthogonalEdgeStyle;rounded=0;orthogonalLoop=1;jettySize=auto;html=1;" edge="1" parent="1" source="8ATP_7gYu5OmUUtbbshO-25" target="8ATP_7gYu5OmUUtbbshO-31">
          <mxGeometry relative="1" as="geometry">
            <Array as="points">
              <mxPoint x="490" y="720" />
            </Array>
          </mxGeometry>
        </mxCell>
        <mxCell id="8ATP_7gYu5OmUUtbbshO-25" value="Вы проиграли" style="rounded=0;whiteSpace=wrap;html=1;" vertex="1" parent="1">
          <mxGeometry x="560" y="690" width="120" height="60" as="geometry" />
        </mxCell>
        <mxCell id="8ATP_7gYu5OmUUtbbshO-34" value="" style="edgeStyle=orthogonalEdgeStyle;rounded=0;orthogonalLoop=1;jettySize=auto;html=1;" edge="1" parent="1" source="8ATP_7gYu5OmUUtbbshO-31">
          <mxGeometry relative="1" as="geometry">
            <mxPoint x="380" y="860" as="targetPoint" />
            <Array as="points">
              <mxPoint x="380" y="800" />
            </Array>
          </mxGeometry>
        </mxCell>
        <mxCell id="8ATP_7gYu5OmUUtbbshO-36" value="Нет" style="edgeLabel;html=1;align=center;verticalAlign=middle;resizable=0;points=[];" vertex="1" connectable="0" parent="8ATP_7gYu5OmUUtbbshO-34">
          <mxGeometry x="-0.2769" y="-3" relative="1" as="geometry">
            <mxPoint as="offset" />
          </mxGeometry>
        </mxCell>
        <mxCell id="8ATP_7gYu5OmUUtbbshO-37" style="edgeStyle=orthogonalEdgeStyle;rounded=0;orthogonalLoop=1;jettySize=auto;html=1;entryX=1;entryY=0.5;entryDx=0;entryDy=0;" edge="1" parent="1" source="8ATP_7gYu5OmUUtbbshO-31" target="8ATP_7gYu5OmUUtbbshO-3">
          <mxGeometry relative="1" as="geometry">
            <Array as="points">
              <mxPoint x="740" y="800" />
              <mxPoint x="740" y="210" />
            </Array>
          </mxGeometry>
        </mxCell>
        <mxCell id="8ATP_7gYu5OmUUtbbshO-38" value="Да" style="edgeLabel;html=1;align=center;verticalAlign=middle;resizable=0;points=[];" vertex="1" connectable="0" parent="8ATP_7gYu5OmUUtbbshO-37">
          <mxGeometry x="-0.9054" y="1" relative="1" as="geometry">
            <mxPoint as="offset" />
          </mxGeometry>
        </mxCell>
        <mxCell id="8ATP_7gYu5OmUUtbbshO-31" value="Хотите сыграть ещё раз?" style="rhombus;whiteSpace=wrap;html=1;" vertex="1" parent="1">
          <mxGeometry x="450" y="760" width="80" height="80" as="geometry" />
        </mxCell>
        <mxCell id="8ATP_7gYu5OmUUtbbshO-35" value="Конец" style="rounded=1;whiteSpace=wrap;html=1;" vertex="1" parent="1">
          <mxGeometry x="320" y="860" width="120" height="60" as="geometry" />
        </mxCell>
        <mxCell id="8ATP_7gYu5OmUUtbbshO-42" style="edgeStyle=orthogonalEdgeStyle;rounded=0;orthogonalLoop=1;jettySize=auto;html=1;entryX=0.5;entryY=0;entryDx=0;entryDy=0;" edge="1" parent="1" source="8ATP_7gYu5OmUUtbbshO-39" target="8ATP_7gYu5OmUUtbbshO-3">
          <mxGeometry relative="1" as="geometry" />
        </mxCell>
        <mxCell id="8ATP_7gYu5OmUUtbbshO-39" value="Хотите сыграть?" style="rhombus;whiteSpace=wrap;html=1;" vertex="1" parent="1">
          <mxGeometry x="200" y="80" width="80" height="80" as="geometry" />
        </mxCell>
      </root>
    </mxGraphModel>
  </diagram>
</mxfile>
